<?xml version="1.0" encoding="utf-8"?>
<!-- Generator: Adobe Illustrator 21.1.0, SVG Export Plug-In . SVG Version: 6.00 Build 0)  -->
<svg version="1.1" id="Layer_1" xmlns="http://www.w3.org/2000/svg" xmlns:xlink="http://www.w3.org/1999/xlink" x="0px" y="0px"
	 viewBox="0 0 100.8 100.7" style="enable-background:new 0 0 100.8 100.7;" xml:space="preserve">
<g>
	<path d="M82.5,41.4c-6-5.1-13.8-8.2-22.3-8.2c-2.6,0-5.1,0.3-7.5,0.8c-1.3-6.7-6.4-11.6-14.9-14.1c-6.4-1.9-12.5-1.7-12.7-1.7
		c-0.8,0-1.4,0.7-1.5,1.5c0,0.8,0.6,1.5,1.4,1.5c5.3,0.3,6.7,7,7.1,9c0.8,5-0.4,8.9-1.3,9.2c-0.9,0.4-2,0.2-3.1-0.3
		c-2.4-1.2-5.6-4.7-7.4-11.1C15.6,12.5,3.7,13.6,3.5,13.6c-0.7,0.1-1.3,0.7-1.3,1.4c0,0.7,0.4,1.4,1.2,1.6c6.3,1.4,5,11.9,3.9,21.2
		c-0.4,3.5-0.8,6.8-0.8,9.5C6.9,70.3,23,73,26.2,73.3c1.5,9.2,6.7,17.5,14.6,22.9c0.2,0.2,0.5,0.3,0.8,0.3h37.2
		c0.4,0,0.8-0.2,1.1-0.5c9.2-6.5,14.7-17,14.7-28.3c0-9.4-3.8-18-10-24.3 M9.5,47.2c0-2.4,0.3-5.7,0.7-9c0.8-7,1.8-15.2-0.8-20.2
		c2.8,1.5,6,4.6,7.8,11c1.8,6.2,5.2,11,9,12.9c1.9,0.9,3.8,1.1,5.5,0.4c3.1-1.2,4-7.3,3.2-12.5c-0.5-3.3-1.7-6.1-3.2-8
		c6.7,1,16.3,4.1,18,13.1c-13.9,4.4-24,17.5-24,32.9c0,0.9,0,1.7,0.1,2.6C22.2,69.8,9.9,66.8,9.5,47.2z M78.3,93.4H42.1
		c-8.2-5.8-13.1-15.1-13.4-25.1h5.9c0.8,0,1.5-0.7,1.5-1.5s-0.7-1.5-1.5-1.5h-5.8c0.5-7,3.4-13.4,7.8-18.4l4.4,4.4
		c0.3,0.3,0.7,0.4,1.1,0.4s0.8-0.1,1.1-0.4c0.6-0.6,0.6-1.5,0-2.1l-4.5-4.5c5.3-5,12.3-8.1,20-8.5v6.4c0,0.8,0.7,1.5,1.5,1.5
		s1.5-0.7,1.5-1.5v-6.4c7.1,0.3,13.5,3,18.6,7.3L74.8,49c-0.6,0.6-0.6,1.5,0,2.1c0.3,0.3,0.7,0.4,1.1,0.4s0.8-0.1,1.1-0.4l5.6-5.6
		c4.4,4.4,7.5,10.2,8.6,16.6c0,0.1,0.3,3,0.3,3.1l-5.7,0c-0.8,0-1.5,0.7-1.5,1.5c0,0.8,0.7,1.5,1.5,1.5h5.9c0.1,0.8,0-1.3,0-0.5
		C91.7,77.9,86.7,87.5,78.3,93.4z"/>
	<path d="M80.4,65.3H67.1c-0.7-3.2-3.5-5.5-6.9-5.5c-3.9,0-7,3.2-7,7s3.2,7,7,7c3.4,0,6.2-2.4,6.9-5.5h13.4c0.8,0,1.5-0.7,1.5-1.5
		S81.2,65.3,80.4,65.3z M60.2,70.8c-2.2,0-4-1.8-4-4s1.8-4,4-4s4.1,1.8,4.1,4S62.4,70.8,60.2,70.8z"/>
	<path d="M55.8,21.8c2.7,2,5.3,3.9,6,5.8c0.2,0.6,0.8,0.9,1.4,0.9c0,0,0,0,0,0c0.6,0,1.1-0.3,1.4-0.9c1.6-3.4,2.6-11.2-4.8-16.1
		c-2-1.3-3.9-2.4-5.5-3.3c-2.7-1.5-4.9-2.7-6.5-4.6c-0.4-0.4-1-0.6-1.6-0.5c-0.6,0.2-1,0.6-1.1,1.2c0,0.3-0.9,6.8,5.2,12.9
		C51.9,19,53.9,20.4,55.8,21.8z M52.8,10.9c1.6,0.9,3.4,1.9,5.3,3.2c4.4,2.9,4.8,6.9,4.5,9.5c-1.4-1.4-3.2-2.8-5-4.1
		c-1.8-1.3-3.7-2.7-5.1-4.2c-2.5-2.5-3.6-5-4.1-7C49.7,9.2,51.2,10,52.8,10.9z"/>
</g>
</svg>
