<?xml version="1.0" encoding="iso-8859-1"?>
<!-- Generator: Adobe Illustrator 21.1.0, SVG Export Plug-In . SVG Version: 6.00 Build 0)  -->
<svg version="1.1" id="Layer_1" xmlns="http://www.w3.org/2000/svg" xmlns:xlink="http://www.w3.org/1999/xlink" x="0px" y="0px"
	 viewBox="0 0 100.75 100.749" style="enable-background:new 0 0 100.75 100.749;" xml:space="preserve">
<g>
	<path d="M74.208,53.298H68.07v-5.397c0-0.829-0.672-1.5-1.5-1.5H29.163v-6.059c6.425-0.643,11.459-6.081,11.459-12.673V8.786h3.183
		c0.829,0,1.5-0.671,1.5-1.5s-0.671-1.5-1.5-1.5H11.966c-0.829,0-1.5,0.671-1.5,1.5s0.671,1.5,1.5,1.5h3.182v18.883
		c0,6.438,4.806,11.762,11.015,12.607v6.125H3.329c-0.829,0-1.5,0.671-1.5,1.5v13.795c0,0.828,0.671,1.5,1.5,1.5h15.089
		L5.577,92.917c-0.2,0.463-0.154,0.997,0.124,1.419s0.749,0.676,1.253,0.676h13.387c0.599,0,1.14-0.355,1.377-0.905l13.344-30.884
		c0.004-0.009,0.005-0.018,0.008-0.026h31.5c0.828,0,1.5-0.672,1.5-1.5v-5.398h6.138c0.828,0,1.5-0.672,1.5-1.5
		S75.036,53.298,74.208,53.298z M18.148,27.669V8.786h19.474v18.883c0,5.369-4.368,9.737-9.737,9.737S18.148,33.038,18.148,27.669z
		 M4.829,49.401h7.234v10.795H4.829V49.401z M19.355,92.012H9.236l12.438-28.789c0.004-0.009,0.005-0.018,0.008-0.026h10.122
		L19.355,92.012z M65.07,60.196H15.063V49.401H65.07V60.196z"/>
	<path d="M81.082,50.956c0.384,0,0.768-0.146,1.061-0.439l9.45-9.45c0.586-0.585,0.586-1.536,0-2.121
		c-0.586-0.586-1.535-0.586-2.121,0l-9.45,9.45c-0.586,0.585-0.586,1.536,0,2.121C80.314,50.81,80.698,50.956,81.082,50.956z"/>
	<path d="M97.466,53.298H84.102c-0.828,0-1.5,0.672-1.5,1.5s0.672,1.5,1.5,1.5h13.364c0.828,0,1.5-0.672,1.5-1.5
		S98.294,53.298,97.466,53.298z"/>
	<path d="M82.143,59.079c-0.586-0.586-1.535-0.586-2.121,0s-0.586,1.535,0,2.121l9.45,9.45c0.293,0.293,0.677,0.439,1.061,0.439
		s0.768-0.146,1.061-0.439c0.586-0.586,0.586-1.535,0-2.121L82.143,59.079z"/>
</g>
</svg>
