<?xml version="1.0" encoding="iso-8859-1"?>
<!-- Generator: Adobe Illustrator 21.1.0, SVG Export Plug-In . SVG Version: 6.00 Build 0)  -->
<svg version="1.1" id="Layer_1" xmlns="http://www.w3.org/2000/svg" xmlns:xlink="http://www.w3.org/1999/xlink" x="0px" y="0px"
	 viewBox="0 0 100.75 100.749" style="enable-background:new 0 0 100.75 100.749;" xml:space="preserve">
<g>
	<path d="M79.24,57.726c-0.023-0.084-0.051-0.169-0.09-0.25l-9.057-18.934c-0.25-0.521-0.776-0.853-1.354-0.853H31.173
		c-0.58,0-1.107,0.334-1.355,0.858l-8.97,18.934c-0.004,0.007-0.005,0.015-0.008,0.023c-4.632,1.196-8.07,5.397-8.07,10.398v6.664
		c0,4.872,3.26,8.991,7.712,10.306v9.646c0,1.815,1.688,3.293,3.763,3.293h4.694c2.075,0,3.763-1.478,3.763-3.293v-9.202h34.596
		v9.202c0,1.815,1.688,3.293,3.763,3.293h4.694c2.075,0,3.763-1.478,3.763-3.293v-9.878c4.099-1.517,7.033-5.454,7.033-10.074
		v-6.664C86.551,63.178,83.484,59.165,79.24,57.726z M32.122,40.689h35.673l7.874,16.462H24.323L32.122,40.689z M29.704,94.503
		c-0.03,0.088-0.303,0.308-0.765,0.308h-4.694c-0.462,0-0.734-0.221-0.763-0.293v-9.204c0.013,0,0.025,0.002,0.038,0.002h6.182
		L29.704,94.503z M76.52,94.503c-0.03,0.088-0.303,0.308-0.765,0.308h-4.694c-0.462,0-0.734-0.221-0.763-0.293v-9.202h5.503
		c0.242,0,0.479-0.021,0.717-0.036L76.52,94.503z M83.551,74.565c0,4.273-3.477,7.75-7.75,7.75H23.52c-4.273,0-7.75-3.477-7.75-7.75
		v-6.664c0-4.273,3.477-7.75,7.75-7.75h52.281c4.273,0,7.75,3.477,7.75,7.75V74.565z"/>
	<path d="M26.592,65.344c-3.247,0-5.889,2.642-5.889,5.89c0,3.247,2.642,5.889,5.889,5.889s5.889-2.642,5.889-5.889
		C32.481,67.985,29.839,65.344,26.592,65.344z M26.592,74.122c-1.593,0-2.889-1.296-2.889-2.889c0-1.594,1.296-2.89,2.889-2.89
		c1.593,0,2.889,1.296,2.889,2.89C29.481,72.826,28.185,74.122,26.592,74.122z"/>
	<path d="M73.408,64.972c-3.248,0-5.89,2.642-5.89,5.89c0,3.247,2.642,5.889,5.89,5.889c3.247,0,5.889-2.642,5.889-5.889
		C79.297,67.613,76.655,64.972,73.408,64.972z M73.408,73.75c-1.594,0-2.89-1.296-2.89-2.889c0-1.594,1.296-2.89,2.89-2.89
		c1.593,0,2.889,1.296,2.889,2.89C76.297,72.454,75.001,73.75,73.408,73.75z"/>
	<path d="M56.451,72.273H42.869c-0.829,0-1.5,0.672-1.5,1.5s0.671,1.5,1.5,1.5h13.582c0.828,0,1.5-0.672,1.5-1.5
		S57.279,72.273,56.451,72.273z"/>
	<path d="M17.137,18.356c-0.53,0-1.021,0.28-1.291,0.736s-0.279,1.021-0.023,1.486c1.956,3.557,5.689,5.767,9.742,5.767
		c4.41,0,8.354-2.594,10.132-6.558h43.731c2.512,0,4.557-2.044,4.558-4.558c0-2.512-2.044-4.556-4.557-4.556H35.697
		c-1.778-3.963-5.723-6.558-10.132-6.558c-4.054,0-7.787,2.209-9.742,5.766c-0.255,0.465-0.247,1.03,0.023,1.486
		s0.761,0.736,1.291,0.736h5.975l1.805,3.126l-1.805,3.126H17.137z M25.277,20.606l2.671-4.626c0.268-0.464,0.268-1.036,0-1.5
		l-2.671-4.626c-0.268-0.464-0.763-0.75-1.299-0.75h-3.732c1.454-1.263,3.334-1.989,5.319-1.989c3.488,0,6.578,2.224,7.688,5.535
		c0.205,0.611,0.778,1.023,1.422,1.023H79.43c0.858,0,1.557,0.698,1.557,1.555c-0.001,0.86-0.699,1.559-1.558,1.559H34.675
		c-0.645,0-1.217,0.412-1.422,1.023c-1.11,3.311-4.2,5.535-7.688,5.535c-1.985,0-3.866-0.727-5.319-1.989h3.732
		C24.514,21.356,25.009,21.07,25.277,20.606z"/>
</g>
</svg>
